<?xml version="1.0" encoding="UTF-8"?>
<svg width="48px" height="48px" viewBox="0 0 48 48" version="1.1" xmlns="http://www.w3.org/2000/svg" xmlns:xlink="http://www.w3.org/1999/xlink">
    <!-- Generator: Sketch 48.2 (47327) - http://www.bohemiancoding.com/sketch -->
    <title>icon-keys</title>
    <desc>Created with Sketch.</desc>
    <defs></defs>
    <g id="Exports" stroke="none" stroke-width="1" fill="none" fill-rule="evenodd">
        <g id="icon-keys">
            <g>
                <rect id="bound" x="0" y="0" width="48" height="48"></rect>
                <path d="M27,18 C27,11.924 22.074,7 16,7 C9.926,7 5,11.924 5,18 C5,23.034 8.386,27.268 13,28.574 L13,31 L11,32.998 L13,35 L13,37 L11,39 L13,41 L13,44 L16,47 L19,44 L19,28.574 C23.614,27.268 27,23.034 27,18 L27,18 Z" id="Stroke-7992" stroke="#009900" stroke-width="2" stroke-linecap="round" stroke-linejoin="round"></path>
                <path d="M19,14 C19,15.656 17.656,17 16,17 C14.344,17 13,15.656 13,14 C13,12.344 14.344,11 16,11 C17.656,11 19,12.344 19,14 L19,14 Z" id="Stroke-7993" stroke="#009900" stroke-width="2" stroke-linecap="round" stroke-linejoin="round"></path>
                <path d="M19,30.0254 C22.344,31.9554 26.484,31.9714 29.85,30.0914 L32,31.9994 L32,34.9994 L35,34.9994 L36,36.0494 L36,38.9994 L38.634,38.9994 L40.758,40.9994 L45,40.9994 L45,36.7574 L34.092,25.8494 C36.432,21.6634 35.83,16.2734 32.272,12.7154 C29.764,10.2074 26.348,9.1634 23.082,9.5834" id="Stroke-7994" stroke="#009900" stroke-width="2" stroke-linecap="round" stroke-linejoin="round"></path>
                <path d="M16,14 L16,5 C16,2.792 17.792,1 20,1 C22.208,1 24,2.792 24,5 L24,9.504" id="Stroke-7995" stroke="#009900" stroke-width="2" stroke-linecap="round" stroke-linejoin="round"></path>
            </g>
        </g>
    </g>
</svg>