<?xml version="1.0" encoding="UTF-8"?>
<svg width="48px" height="48px" viewBox="0 0 48 48" version="1.1" xmlns="http://www.w3.org/2000/svg" xmlns:xlink="http://www.w3.org/1999/xlink">
    <!-- Generator: Sketch 48.2 (47327) - http://www.bohemiancoding.com/sketch -->
    <title>icon-link</title>
    <desc>Created with Sketch.</desc>
    <defs></defs>
    <g id="Exports" stroke="none" stroke-width="1" fill="none" fill-rule="evenodd">
        <g id="icon-link">
            <g>
                <rect id="bound" x="0" y="0" width="48" height="48"></rect>
                <path d="M29.4545455,25.0909091 L29.6421818,25.2785455 C31.3461818,26.9825455 34.1083636,26.9825455 35.8123636,25.2785455 L44.4632727,16.6298182 C47.0072727,14.0836364 47.0072727,9.91854545 44.4632727,7.37236364 L40.6276364,3.53890909 C38.0836364,0.992727273 33.9163636,0.992727273 31.3723636,3.53890909 L22.7214545,12.1876364 C21.0174545,13.8916364 21.0174545,16.6538182 22.7214545,18.36 L22.9090909,18.5454545" id="Stroke-146" stroke="#009900" stroke-width="2" stroke-linecap="round" stroke-linejoin="round"></path>
                <path d="M18.5454545,22.9090909 L18.3578182,22.7236364 C16.6538182,21.0174545 13.8916364,21.0174545 12.1876364,22.7236364 L3.53672727,31.3723636 C0.992727273,33.9185455 0.992727273,38.0836364 3.53672727,40.6298182 L7.37236364,44.4632727 C9.91636364,47.0094545 14.0836364,47.0094545 16.6276364,44.4632727 L25.2785455,35.8145455 C26.9825455,34.1083636 26.9825455,31.3461818 25.2785455,29.6421818 L25.0909091,29.4545455" id="Stroke-147" stroke="#009900" stroke-width="2" stroke-linecap="round" stroke-linejoin="round"></path>
                <path d="M15.5155636,32.4855273 L32.4835636,15.5153455" id="Stroke-148" stroke="#009900" stroke-width="2" stroke-linecap="round" stroke-linejoin="round"></path>
            </g>
        </g>
    </g>
</svg>