<?xml version="1.0" encoding="utf-8"?>
<!-- Generator: Adobe Illustrator 20.0.0, SVG Export Plug-In . SVG Version: 6.00 Build 0)  -->
<svg version="1.1" id="Layer_1" xmlns="http://www.w3.org/2000/svg" xmlns:xlink="http://www.w3.org/1999/xlink" x="0px" y="0px"
	 viewBox="0 0 14 14" style="enable-background:new 0 0 14 14;" xml:space="preserve">
<style type="text/css">
	.st0{fill:none;}
	.st1{fill:#FFFFFF;}
</style>
<title>linkedin</title>
<desc>Created with Sketch.</desc>
<g id="Patterns---Final">
	<g id="footer" transform="translate(-403.000000, -516.000000)">
		<g id="footer---desktop-copy" transform="translate(100.000000, 228.000000)">
			<g id="header" transform="translate(182.000000, 133.000000)">
				<g id="sns" transform="translate(0.000000, 138.000000)">
					<g id="linkedin" transform="translate(104.000000, 0.000000)">
						<circle id="Oval" class="st0" cx="24" cy="24" r="24"/>
						<g id="icon-linkedin" transform="translate(16.000000, 16.000000)">
							<g id="Combined-Shape">
								<path class="st1" d="M11.5,5.4c2.9,0,3.5,1.9,3.5,4.4V15h-2.9v-4.5c0-1.1,0-2.5-1.5-2.5c-1.5,0-1.7,1.2-1.7,2.4V15H6V5.6
									h2.8v1.3h0C9.2,6.2,10.1,5.4,11.5,5.4z M2.7,1c0.9,0,1.7,0.8,1.7,1.7c0,0.9-0.8,1.7-1.7,1.7C1.8,4.4,1,3.6,1,2.7
									C1,1.8,1.8,1,2.7,1z M1.2,15V5.6h2.9V15H1.2z"/>
							</g>
						</g>
					</g>
				</g>
			</g>
		</g>
	</g>
</g>
</svg>
