<svg width="80" height="80" xmlns="http://www.w3.org/2000/svg"><g fill="none" fill-rule="evenodd"><path d="M4 4h72v72H4z"/><path d="M58 65.2c0 1.32-1.078 2.4-2.4 2.4H22c-1.32 0-2.4-1.08-2.4-2.4V14.8c0-1.318 1.08-2.4 2.4-2.4h33.6c1.322 0 2.4 1.082 2.4 2.4v50.4z" stroke="#090" stroke-width="2.4" stroke-linecap="round" stroke-linejoin="round"/><path stroke="#090" stroke-width="2.4" stroke-linecap="round" stroke-linejoin="round" d="M24.4 17.2h28.8v12H24.4zm24 4.8v2.4M26.8 38.8h2.4m4.8 0h2.4m4.8 0h2.4m4.8 0h2.4m-24 7.2h2.4m4.8 0h2.4m4.8 0h2.4m4.8 0h2.4m-24 7.2h2.4m4.8 0h2.4m4.8 0h2.4m4.8 0h2.4m-24 7.2h2.4m4.8 0h2.4m4.8 0h9.6"/></g></svg>