<?xml version="1.0" encoding="UTF-8"?>
<svg width="48px" height="48px" viewBox="0 0 48 48" version="1.1" xmlns="http://www.w3.org/2000/svg" xmlns:xlink="http://www.w3.org/1999/xlink">
    <!-- Generator: Sketch 48.2 (47327) - http://www.bohemiancoding.com/sketch -->
    <title>icon-handshake</title>
    <desc>Created with Sketch.</desc>
    <defs></defs>
    <g id="Exports" stroke="none" stroke-width="1" fill="none" fill-rule="evenodd">
        <g id="icon-handshake">
            <g>
                <rect id="bound" x="0" y="0" width="48" height="48"></rect>
                <polyline id="Line-121" stroke="#009900" stroke-width="2" stroke-linecap="round" stroke-linejoin="round" points="8.20514341 26.1598921 1.05197269 18.7320371 13.6809743 6.11990901 21.0922283 13.4854276"></polyline>
                <path d="M5.46261721,23.2788466 L18.090834,10.6241424" id="Line-122" stroke="#009900" stroke-width="2" stroke-linecap="round" stroke-linejoin="round"></path>
                <path d="M29.8751814,10.6239462 L42.4359043,23.2649161" id="Line-123" stroke="#009900" stroke-width="2" stroke-linecap="round" stroke-linejoin="round"></path>
                <path d="M36.6857816,29.1082353 C31.5438229,23.9170951 28.9728436,21.321525 28.9728436,21.321525 C23.1618979,18.7283093 22.4938266,18.1873775 21.1827978,19.3133868 C20.1134882,20.2317896 18.8102497,21.5249564 18.1979608,22.1108498 C15.9541828,24.2578998 12.9036178,20.8476946 15.0565538,18.7283093 C17.2094899,16.6089239 20.1289912,14.1136136 20.1289912,14.1136136 C22.1567497,12.4888561 27.0710475,12.8176925 28.5568931,11.6532274 C28.5568931,11.6532274 30.4748433,9.80453685 34.3107437,6.10715582 L46.9683909,18.7283093 L36.6857816,29.1082353 Z" id="Line-124" stroke="#009900" stroke-width="2" stroke-linecap="round" stroke-linejoin="round"></path>
                <path d="M28.8225806,21.2096774 C31.4205516,22.1925328 33.6061786,22.4508847 35.3794617,21.9847329" id="Line-125" stroke="#009900" stroke-width="2" stroke-linecap="round" stroke-linejoin="round"></path>
                <path d="M7.8120513,35.8017996 L7.41579164,35.8014894 C6.8859639,35.8014894 6.38648208,35.6327578 6.00777096,35.3261873 C5.62905983,35.0196169 5.42031659,34.6144129 5.41993343,34.1858222 L5.41993343,32.8942811 C5.42031659,32.4493135 5.64369638,32.0455363 6.00478234,31.7532336 C6.36663462,31.4603105 6.86611643,31.2789241 7.41763079,31.2794824 L7.81051868,31.2789241 C8.33996327,31.2792342 8.84059455,31.448276 9.21922905,31.7547844 C9.59786354,32.0612928 9.80637689,32.4656904 9.80637689,32.8945912 L9.80637689,34.1861324 C9.80645352,35.0439961 8.86871818,35.8018616 7.8120513,35.8017996 Z M12.2366969,35.8012413 L11.8438091,35.8017996 C10.7436925,35.8017996 9.84795111,35.0766879 9.84795111,34.1861324 L9.84795111,30.4471145 C9.84756795,30.0015266 10.0720972,29.5980595 10.4334896,29.3055087 C10.7945756,29.013206 11.2929845,28.8314473 11.8422765,28.8314473 L12.2385361,28.8317575 C12.7683638,28.8317575 13.2678455,29.0004891 13.6465566,29.3070595 C14.0252677,29.61363 14.2343941,30.0185238 14.2343941,30.4474246 L14.2343941,34.1864426 C14.2328615,35.0769981 13.3390359,35.8030402 12.2366969,35.8012413 Z M16.6676906,35.8018616 L16.2713617,35.8015514 C15.7414413,35.8015514 15.2418723,35.6328198 14.863095,35.3262494 C14.4843177,35.0196789 14.2758445,34.6153434 14.2758445,34.1864426 L14.2758445,31.674823 C14.2758445,31.2459222 14.4843177,30.8409663 14.8630183,30.5344579 C15.241719,30.2279495 15.7420545,30.0592179 16.2731245,30.0595281 L16.666081,30.0589698 C17.1956181,30.0592799 17.6963369,30.2283217 18.0750375,30.5348301 C18.4537382,30.8413385 18.662288,31.2457361 18.662288,31.6746369 L18.662288,34.1862565 C18.6623646,35.0439961 17.7246187,35.8018616 16.6676906,35.8018616 Z M23.0893641,33.083918 L23.0897473,34.1861944 C23.0882148,35.0767499 22.1937009,35.8021718 21.0952127,35.8021718 L20.6989877,35.8018616 C19.598967,35.8018616 18.7033038,35.0767499 18.7033038,34.1861944 L18.7033038,33.0836078 C18.7033038,32.6377098 18.9270472,32.2336224 19.2884081,31.9410716 C19.6497691,31.6485207 20.1485942,31.4676305 20.6978383,31.4676305 L21.0940634,31.4679407 C21.6234617,31.4682509 22.123283,31.6366723 22.5019611,31.9432427 C22.8806391,32.2498132 23.0893641,32.6550172 23.0893641,33.083918 Z" id="Combined-Shape" stroke="#009900" stroke-width="2" stroke-linecap="round" stroke-linejoin="round" transform="translate(14.254840, 32.316810) rotate(44.000000) translate(-14.254840, -32.316810) "></path>
                <path d="M27.1102732,36.7270584 L27.1102732,41.6882891 C27.1102732,42.6900053 26.1025638,43.5044154 24.8658046,43.5050501 C23.6282613,43.5050501 22.6236101,42.6893071 22.6221202,41.6889238 L22.6798412,35.4219707" id="Path" stroke="#009900" stroke-width="2" stroke-linecap="round" stroke-linejoin="round" transform="translate(24.866197, 39.463510) rotate(-45.000000) translate(-24.866197, -39.463510) "></path>
                <path d="M33.9188981,30.188726 L33.9188981,35.1499567 C33.9188981,36.1516728 32.9111887,36.9660829 31.6744296,36.9667177 C30.4368862,36.9667177 29.4322351,36.1509746 29.4307452,35.1505914 L29.4307452,30.188726" id="Path-Copy-2" stroke="#009900" stroke-width="2" stroke-linecap="round" stroke-linejoin="round" transform="translate(31.674822, 33.577722) rotate(-45.000000) translate(-31.674822, -33.577722) "></path>
                <path d="M30.7452947,33.3623294 L30.7452947,38.32356 C30.7452947,39.3252762 29.7375854,40.1396863 28.5008262,40.140321 C27.2632829,40.140321 26.2586317,39.324578 26.2571418,38.3241948 L26.2571418,33.3623294" id="Path-Copy" stroke="#009900" stroke-width="2" stroke-linecap="round" stroke-linejoin="round" transform="translate(28.501218, 36.751325) rotate(-45.000000) translate(-28.501218, -36.751325) "></path>
                <path d="M37.0925015,27.0151226 L37.0925015,31.9763533 C37.0925015,32.9780695 36.0847921,33.7924796 34.8480329,33.7931143 C33.6104896,33.7931143 32.6058384,32.9773713 32.6043486,31.976988 L32.6043486,27.0151226" id="Path-Copy-3" stroke="#009900" stroke-width="2" stroke-linecap="round" stroke-linejoin="round" transform="translate(34.848425, 30.404118) rotate(-45.000000) translate(-34.848425, -30.404118) "></path>
            </g>
        </g>
    </g>
</svg>