<?xml version="1.0" encoding="UTF-8"?>
<svg width="48px" height="48px" viewBox="0 0 48 48" version="1.1" xmlns="http://www.w3.org/2000/svg" xmlns:xlink="http://www.w3.org/1999/xlink">
    <!-- Generator: Sketch 48.2 (47327) - http://www.bohemiancoding.com/sketch -->
    <title>icon-calculator</title>
    <desc>Created with Sketch.</desc>
    <defs></defs>
    <g id="Exports" stroke="none" stroke-width="1" fill="none" fill-rule="evenodd">
        <g id="icon-calculator">
            <g>
                <g>
                    <rect id="bound" x="0" y="0" width="48" height="48"></rect>
                    <path d="M39,45 C39,46.1 38.102,47 37,47 L9,47 C7.9,47 7,46.1 7,45 L7,3 C7,1.902 7.9,1 9,1 L37,1 C38.102,1 39,1.902 39,3 L39,45 Z" id="Shape" stroke="#009900" stroke-width="2" stroke-linecap="round" stroke-linejoin="round"></path>
                    <rect id="Rectangle-path" stroke="#009900" stroke-width="2" stroke-linecap="round" stroke-linejoin="round" x="11" y="5" width="24" height="10"></rect>
                    <path d="M31,9 L31,11" id="Shape" stroke="#009900" stroke-width="2" stroke-linecap="round" stroke-linejoin="round"></path>
                    <path d="M13,23 L15,23" id="Shape" stroke="#009900" stroke-width="2" stroke-linecap="round" stroke-linejoin="round"></path>
                    <path d="M19,23 L21,23" id="Shape" stroke="#009900" stroke-width="2" stroke-linecap="round" stroke-linejoin="round"></path>
                    <path d="M25,23 L27,23" id="Shape" stroke="#009900" stroke-width="2" stroke-linecap="round" stroke-linejoin="round"></path>
                    <path d="M31,23 L33,23" id="Shape" stroke="#009900" stroke-width="2" stroke-linecap="round" stroke-linejoin="round"></path>
                    <path d="M13,29 L15,29" id="Shape" stroke="#009900" stroke-width="2" stroke-linecap="round" stroke-linejoin="round"></path>
                    <path d="M19,29 L21,29" id="Shape" stroke="#009900" stroke-width="2" stroke-linecap="round" stroke-linejoin="round"></path>
                    <path d="M25,29 L27,29" id="Shape" stroke="#009900" stroke-width="2" stroke-linecap="round" stroke-linejoin="round"></path>
                    <path d="M31,29 L33,29" id="Shape" stroke="#009900" stroke-width="2" stroke-linecap="round" stroke-linejoin="round"></path>
                    <path d="M13,35 L15,35" id="Shape" stroke="#009900" stroke-width="2" stroke-linecap="round" stroke-linejoin="round"></path>
                    <path d="M19,35 L21,35" id="Shape" stroke="#009900" stroke-width="2" stroke-linecap="round" stroke-linejoin="round"></path>
                    <path d="M25,35 L27,35" id="Shape" stroke="#009900" stroke-width="2" stroke-linecap="round" stroke-linejoin="round"></path>
                    <path d="M31,35 L33,35" id="Shape" stroke="#009900" stroke-width="2" stroke-linecap="round" stroke-linejoin="round"></path>
                    <path d="M13,41 L15,41" id="Shape" stroke="#009900" stroke-width="2" stroke-linecap="round" stroke-linejoin="round"></path>
                    <path d="M19,41 L21,41" id="Shape" stroke="#009900" stroke-width="2" stroke-linecap="round" stroke-linejoin="round"></path>
                    <path d="M25,41 L33,41" id="Shape" stroke="#009900" stroke-width="2" stroke-linecap="round" stroke-linejoin="round"></path>
                </g>
            </g>
        </g>
    </g>
</svg>