<svg width="80" height="80" xmlns="http://www.w3.org/2000/svg"><g transform="translate(4 4)" fill="none" fill-rule="evenodd"><path d="M0 0h72v72H0z"/><path stroke="#00A376" stroke-width="2.4" stroke-linecap="round" d="M64.8 21.6V7.2H50.4"/><path stroke="#00A376" stroke-width="2.4" stroke-linecap="round" d="M52.8 12H60v7.2"/><path stroke="#00A376" stroke-width="2.4" stroke-linecap="round" stroke-linejoin="round" d="M14.4 38.4v25.2h38.4V38.4"/><path stroke="#00A376" stroke-width="2.4" stroke-linecap="round" stroke-linejoin="round" d="M36 61.2v-18h9.6v18"/><rect stroke="#00A376" stroke-width="2.4" x="20.4" y="46.8" width="7.2" height="7.2" rx="1.2"/><path d="M8.58 35.538c1.577 1.118 3.113 1.662 4.62 1.662 1.797 0 4.453-.759 7.913-2.297l.873-.388.574.765c2.16 2.88 5.4 4.32 9.84 4.32 4.523 0 8.66-1.504 12.45-4.537l.75-.6.75.6c1.8 1.44 3.543 2.137 5.25 2.137 1.507 0 3.043-.544 4.62-1.662L51.895 20.4h-38.99L8.58 35.538z" stroke="#00A376" stroke-width="2.4"/><path d="M25.2 21.6l-3.6 13.2m21.6-13.2l3.6 13.2" stroke="#00A376" stroke-width="2.4" stroke-linecap="round" stroke-linejoin="round"/></g></svg>